<svg xmlns="http://www.w3.org/2000/svg" viewBox="0 0 512 512" role="img" aria-labelledby="coffeeTitle coffeeDesc">
  <title id="coffeeTitle">Coffee branch with tasting cup</title>
  <desc id="coffeeDesc">Pastel illustration showing a coffee branch, cherries, and a cupping bowl on a soft green backdrop.</desc>
  <defs>
    <linearGradient id="bg" x1="0" y1="0" x2="1" y2="1">
      <stop offset="0%" stop-color="#f7f3eb" />
      <stop offset="100%" stop-color="#e3f2ea" />
    </linearGradient>
    <radialGradient id="leafLight" cx="0.5" cy="0.35" r="0.75">
      <stop offset="0%" stop-color="#f4fff5" />
      <stop offset="55%" stop-color="#9fd5b4" />
      <stop offset="100%" stop-color="#4d9a73" />
    </radialGradient>
    <radialGradient id="leafDark" cx="0.5" cy="0.35" r="0.75">
      <stop offset="0%" stop-color="#e9fde9" />
      <stop offset="60%" stop-color="#7ec999" />
      <stop offset="100%" stop-color="#357a57" />
    </radialGradient>
    <radialGradient id="cherry" cx="0.45" cy="0.35" r="0.65">
      <stop offset="0%" stop-color="#ffe7d9" />
      <stop offset="55%" stop-color="#f58a68" />
      <stop offset="100%" stop-color="#bb3d36" />
    </radialGradient>
    <linearGradient id="branch" x1="0" y1="0" x2="1" y2="1">
      <stop offset="0%" stop-color="#caa781" />
      <stop offset="100%" stop-color="#8b5a3c" />
    </linearGradient>
    <linearGradient id="cup" x1="0" y1="0" x2="0" y2="1">
      <stop offset="0%" stop-color="#ffffff" />
      <stop offset="100%" stop-color="#dde8ef" />
    </linearGradient>
    <linearGradient id="brew" x1="0" y1="0" x2="0" y2="1">
      <stop offset="0%" stop-color="#8a5133" />
      <stop offset="100%" stop-color="#4d2816" />
    </linearGradient>
  </defs>
  <rect width="512" height="512" rx="42" fill="url(#bg)" />
  <ellipse cx="264" cy="420" rx="210" ry="58" fill="#c7ddcd" opacity="0.45" />
  <g transform="translate(36,72)">
    <path d="M24 236 C120 150 252 122 372 168" fill="none" stroke="url(#branch)" stroke-width="18" stroke-linecap="round" />
    <path d="M48 226 C140 150 268 142 360 182" fill="none" stroke="#b97b53" stroke-width="10" stroke-linecap="round" opacity="0.7" />
    <g transform="translate(112,102) rotate(-12)">
      <ellipse rx="96" ry="52" fill="url(#leafLight)" />
      <path d="M-18 -40 C2 -12 10 24 4 52" stroke="#3c7a57" stroke-width="5" fill="none" stroke-linecap="round" />
    </g>
    <g transform="translate(230,150) rotate(6)">
      <ellipse rx="108" ry="56" fill="url(#leafDark)" />
      <path d="M-12 -46 C6 -16 12 18 6 52" stroke="#346a4d" stroke-width="5" fill="none" stroke-linecap="round" />
    </g>
    <g transform="translate(92,220)">
      <circle r="34" fill="url(#cherry)" />
      <circle cx="50" cy="-24" r="30" fill="url(#cherry)" />
      <circle cx="78" cy="28" r="32" fill="url(#cherry)" />
      <circle cx="20" cy="52" r="26" fill="url(#cherry)" />
      <path d="M16 12 C36 -12 60 -18 80 -8" stroke="#ffd3bf" stroke-width="6" stroke-linecap="round" opacity="0.7" />
    </g>
    <g transform="translate(312,220)">
      <circle r="32" fill="url(#cherry)" />
      <circle cx="44" cy="-18" r="28" fill="url(#cherry)" />
      <circle cx="68" cy="24" r="30" fill="url(#cherry)" />
      <path d="M20 6 C36 -10 56 -10 72 -2" stroke="#ffd3bf" stroke-width="5" stroke-linecap="round" opacity="0.65" />
    </g>
  </g>
  <g transform="translate(132,252)">
    <path d="M38 0 h190 c34 0 62 28 62 62s-28 62-62 62H38c-34 0-62-28-62-62S4 0 38 0z" fill="url(#cup)" />
    <path d="M72 26 h122 c22 0 40 18 40 40s-18 40-40 40H72c-22 0-40-18-40-40S50 26 72 26z" fill="url(#brew)" />
    <path d="M206 44 h34c24 0 44 20 44 44s-20 44-44 44h-12c18-12 30-32 30-52 0-16-5-30-14-40z" fill="#dfe9f2" opacity="0.7" />
    <path d="M0 62 c0 64 50 116 112 116s112-52 112-116" fill="none" stroke="#c4d9cd" stroke-width="12" stroke-linecap="round" opacity="0.5" />
  </g>
  <text x="256" y="468" font-family="'Poppins','Segoe UI',sans-serif" font-size="34" text-anchor="middle" fill="#5a715c" opacity="0.85">Côte d’Ivoire Coffee</text>
</svg>
