<svg xmlns="http://www.w3.org/2000/svg" viewBox="0 0 512 512" role="img" aria-labelledby="coffeeTitle coffeeDesc">
  <title id="coffeeTitle">Coffee branch with tasting cup</title>
  <desc id="coffeeDesc">Pastel illustration showing a coffee branch, cherries, and a cupping bowl on a soft green backdrop.</desc>
  <defs>
    <linearGradient id="bg" x1="0" y1="0" x2="1" y2="1">
      <stop offset="0%" stop-color="#f7f3eb" />
      <stop offset="100%" stop-color="#e3f2ea" />
    </linearGradient>
    <radialGradient id="leafLight" cx="0.5" cy="0.35" r="0.75">
      <stop offset="0%" stop-color="#f4fff5" />
      <stop offset="55%" stop-color="#9fd5b4" />
      <stop offset="100%" stop-color="#4d9a73" />
    </radialGradient>
    <radialGradient id="leafDark" cx="0.5" cy="0.35" r="0.75">
      <stop offset="0%" stop-color="#e9fde9" />
      <stop offset="60%" stop-color="#7ec999" />
      <stop offset="100%" stop-color="#357a57" />
    </radialGradient>
    <radialGradient id="cherry" cx="0.45" cy="0.35" r="0.65">
      <stop offset="0%" stop-color="#ffe7d9" />
      <stop offset="55%" stop-color="#f58a68" />
      <stop offset="100%" stop-color="#bb3d36" />
    </radialGradient>
    <linearGradient id="branch" x1="0" y1="0" x2="1" y2="1">
      <stop offset="0%" stop-color="#caa781" />
      <stop offset="100%" stop-color="#8b5a3c" />
    </linearGradient>
    <linearGradient id="cup" x1="0" y1="0" x2="0" y2="1">
      <stop offset="0%" stop-color="#ffffff" />
      <stop offset="100%" stop-color="#dde8ef" />
    </linearGradient>
    <linearGradient id="brew" x1="0" y1="0" x2="0" y2="1">
      <stop offset="0%" stop-color="#8a5133" />
      <stop offset="100%" stop-color="#4d2816" />
    </linearGradient>
  </defs>
  <rect width="512" height="512" rx="42" fill="url(#bg)" />
  <ellipse cx="264" cy="420" rx="210" ry="58" fill="#c7ddcd" opacity="0.45" />
  <g transform="translate(36,72)">
    <path d="M24 236 C120 150 252 122 372 168" fill="none" stroke="url(#branch)" stroke-width="18" stroke-linecap="round" />
    <path d="M48 226 C140 150 268 142 360 182" fill="none" stroke="#b97b53" stroke-width="10" stroke-linecap="round" opacity="0.7" />
    <g transform="translate(112,102) rotate(-12)">
      <ellipse rx="96" ry="52" fill="url(#leafLight)" />
      <path d="M-18 -40 C2 -12 10 24 4 52" stroke="#3c7a57" stroke-width="5" fill="none" stroke-linecap="round" />
    </g>
    <g transform="translate(230,150) rotate(6)">
      <ellipse rx="108" ry="56" fill="url(#leafDark)" />
      <path d="M-12 -46 C6 -16 12 18 6 52" stroke="#346a4d" stroke-width="5" fill="none" stroke-linecap="round" />
    </g>
    <g transform="translate(92,220)">
      <circle r="34" fill="url(#cherry)" />
      <circle cx="50" cy="-24" r="30" fill="url(#cherry)" />
      <circle cx="78" cy="28" r="32" fill="url(#cherry)" />
      <circle cx="20" cy="52" r="26" fill="url(#cherry)" />
      <path d="M16 12 C36 -12 60 -18 80 -8" stroke="#ffd3bf" stroke-width="6" stroke-linecap="round" opacity="0.7" />
    </g>
    <g transform="translate(312,220)">
      <circle r="32" fill="url(#cherry)" />
      <circle cx="44" cy="-18" r="28" fill="url(#cherry)" />
      <circle cx="68" cy="24" r="30" fill="url(#cherry)" />
      <path d="M20 6 C36 -10 56 -10 72 -2" stroke="#ffd3bf" stroke-width="5" stroke-linecap="round" opacity="0.65" />
    </g>
  </g>
  <g transform="translate(132,252)">
    <path d="M38 0 h190 c34 0 62 28 62 62s-28 62-62 62H38c-34 0-62-28-62-62S4 0 38 0z" fill="url(#cup)" />
    <path d="M72 26 h122 c22 0 40 18 40 40s-18 40-40 40H72c-22 0-40-18-40-40S50 26 72 26z" fill="url(#brew)" />
    <path d="M206 44 h34c24 0 44 20 44 44s-20 44-44 44h-12c18-12 30-32 30-52 0-16-5-30-14-40z" fill="#dfe9f2" opacity="0.7" />
    <path d="M0 62 c0 64 50 116 112 116s112-52 112-116" fill="none" stroke="#c4d9cd" stroke-width="12" stroke-linecap="round" opacity="0.5" />
  </g>
  <text x="256" y="468" font-family="'Poppins','Segoe UI',sans-serif" font-size="34" text-anchor="middle" fill="#5a715c" opacity="0.85">Côte d’Ivoire Coffee</text>

  <title id="coffeeTitle">Coffee cherries with roasting cup</title>
  <desc id="coffeeDesc">Stylised illustration of coffee cherries on a branch beside a tasting cup.</desc>
  <defs>
    <linearGradient id="bg" x1="0" y1="0" x2="0" y2="1">
      <stop offset="0%" stop-color="#f3ede7" />
      <stop offset="100%" stop-color="#e3d3c6" />
    </linearGradient>
    <radialGradient id="leaf" cx="0.5" cy="0.3" r="0.8">
      <stop offset="0%" stop-color="#d5f2ce" />
      <stop offset="60%" stop-color="#4a915b" />
      <stop offset="100%" stop-color="#2d5a39" />
    </radialGradient>
    <radialGradient id="cherry" cx="0.4" cy="0.35" r="0.7">
      <stop offset="0%" stop-color="#ffd6c5" />
      <stop offset="55%" stop-color="#d45736" />
      <stop offset="100%" stop-color="#7f1f13" />
    </radialGradient>
    <linearGradient id="cup" x1="0" y1="0" x2="0" y2="1">
      <stop offset="0%" stop-color="#ffffff" />
      <stop offset="100%" stop-color="#d6dbe2" />
    </linearGradient>
    <linearGradient id="brew" x1="0" y1="0" x2="0" y2="1">
      <stop offset="0%" stop-color="#5b2d1b" />
      <stop offset="100%" stop-color="#2c140b" />
    </linearGradient>
  </defs>
  <rect width="512" height="512" fill="url(#bg)" />
  <ellipse cx="256" cy="420" rx="200" ry="56" fill="#c7b8ac" opacity="0.4" />
  <g transform="translate(40,60)">
    <path d="M40 210 C140 140 260 120 360 170" fill="none" stroke="#2f5b3a" stroke-width="16" stroke-linecap="round" />
    <path d="M60 206 C150 140 270 130 360 176" fill="none" stroke="#3f8b5c" stroke-width="10" stroke-linecap="round" />
    <g transform="translate(150,110) rotate(-12)">
      <ellipse rx="82" ry="42" fill="url(#leaf)" />
      <path d="M-12 -32 C6 -10 12 18 8 38" stroke="#1e4a31" stroke-width="4" fill="none" />
    </g>
    <g transform="translate(240,160) rotate(8)">
      <ellipse rx="90" ry="46" fill="url(#leaf)" />
      <path d="M-8 -38 C6 -12 10 14 6 40" stroke="#1e4a31" stroke-width="4" fill="none" />
    </g>
    <g transform="translate(90,200)">
      <circle r="32" fill="url(#cherry)" />
      <circle cx="46" cy="-20" r="28" fill="url(#cherry)" />
      <circle cx="70" cy="24" r="30" fill="url(#cherry)" />
      <circle cx="16" cy="46" r="24" fill="url(#cherry)" />
      <path d="M14 6 C30 -12 48 -16 64 -10" stroke="#f7cab9" stroke-width="5" stroke-linecap="round" opacity="0.7" />
    </g>
    <g transform="translate(300,210)">
      <circle r="30" fill="url(#cherry)" />
      <circle cx="38" cy="-12" r="26" fill="url(#cherry)" />
      <circle cx="60" cy="22" r="28" fill="url(#cherry)" />
      <path d="M18 0 C30 -12 46 -12 60 -4" stroke="#f7cab9" stroke-width="4" stroke-linecap="round" opacity="0.6" />
    </g>
  </g>
  <g transform="translate(140,250)">
    <path d="M36 0 h180 c32 0 58 26 58 58s-26 58-58 58H36c-32 0-58-26-58-58S4 0 36 0z" fill="url(#cup)" />
    <path d="M70 22 h116 c20 0 36 16 36 36s-16 36-36 36H70c-20 0-36-16-36-36S50 22 70 22z" fill="url(#brew)" />
    <path d="M200 38 h28c22 0 40 18 40 40s-18 40-40 40h-10c16-10 26-28 26-46 0-14-4-26-12-34z" fill="#cdd2dc" opacity="0.65" />
    <path d="M0 58 c0 58 46 106 104 106s104-48 104-106" fill="none" stroke="#bfa692" stroke-width="10" stroke-linecap="round" opacity="0.4" />
  </g>
  <text x="256" y="472" font-family="'Poppins', 'Segoe UI', sans-serif" font-size="36" text-anchor="middle" fill="#5c3420" opacity="0.85">West African Coffee</text>

<svg xmlns="http://www.w3.org/2000/svg" viewBox="0 0 640 480" role="img" aria-labelledby="title desc">
  <title id="title">Coffee cherries and beans illustration</title>
  <desc id="desc">Stylised branch of coffee cherries above a tasting cup with beans.</desc>
  <defs>
    <linearGradient id="bg" x1="0" y1="0" x2="0" y2="1">
      <stop offset="0%" stop-color="#f5ede2" />
      <stop offset="100%" stop-color="#ead7c2" />
    </linearGradient>
    <radialGradient id="leaf" cx="0.5" cy="0.4" r="0.7">
      <stop offset="0%" stop-color="#b8e0c0" />
      <stop offset="80%" stop-color="#3d7b4d" />
      <stop offset="100%" stop-color="#27593d" />
    </radialGradient>
    <radialGradient id="cherry" cx="0.45" cy="0.35" r="0.7">
      <stop offset="0%" stop-color="#ffd4c5" />
      <stop offset="55%" stop-color="#d55a38" />
      <stop offset="100%" stop-color="#8a2418" />
    </radialGradient>
    <linearGradient id="cup" x1="0" y1="0" x2="0" y2="1">
      <stop offset="0%" stop-color="#ffffff" />
      <stop offset="100%" stop-color="#d5d8df" />
    </linearGradient>
    <linearGradient id="espresso" x1="0" y1="0" x2="0" y2="1">
      <stop offset="0%" stop-color="#5b2e18" />
      <stop offset="100%" stop-color="#2b130b" />
    </linearGradient>
  </defs>
  <rect width="640" height="480" fill="url(#bg)" />
  <ellipse cx="320" cy="420" rx="250" ry="60" fill="#d2c3b5" opacity="0.45" />
  <g transform="translate(60,40)">
    <g transform="translate(60,40) rotate(-8)">
      <path d="M0 160 C80 70, 220 40, 360 120" fill="none" stroke="#28533d" stroke-width="14" stroke-linecap="round" />
      <path d="M40 150 C120 90, 200 70, 320 120" fill="none" stroke="#3f8b5c" stroke-width="10" stroke-linecap="round" />
      <g transform="translate(180,48)">
        <ellipse rx="86" ry="42" fill="url(#leaf)" />
        <path d="M-10 -35 C5 -18, 12 4, 10 35" stroke="#1e4a31" stroke-width="4" fill="none" />
      </g>
      <g transform="translate(260,110) rotate(12)">
        <ellipse rx="92" ry="48" fill="url(#leaf)" />
        <path d="M-8 -38 C4 -16, 8 6, 6 40" stroke="#1e4a31" stroke-width="4" fill="none" />
      </g>
      <g transform="translate(120,120)">
        <circle r="34" fill="url(#cherry)" />
        <circle cx="48" cy="-18" r="28" fill="url(#cherry)" />
        <circle cx="78" cy="24" r="32" fill="url(#cherry)" />
        <circle cx="18" cy="46" r="26" fill="url(#cherry)" />
        <path d="M18 6 C30 -14, 50 -18, 70 -12" stroke="#f7cab9" stroke-width="5" stroke-linecap="round" opacity="0.7" />
      </g>
      <g transform="translate(290,150)">
        <circle r="30" fill="url(#cherry)" />
        <circle cx="40" cy="-10" r="26" fill="url(#cherry)" />
        <circle cx="62" cy="24" r="30" fill="url(#cherry)" />
        <path d="M18 2 C30 -12, 48 -12, 62 -4" stroke="#f7cab9" stroke-width="4" stroke-linecap="round" opacity="0.6" />
      </g>
    </g>
  </g>
  <g transform="translate(0,40)">
    <g transform="translate(210,180)">
      <path d="M40 0 h180 c32 0 58 26 58 58s-26 58-58 58H40c-32 0-58-26-58-58S8 0 40 0z" fill="url(#cup)" />
      <path d="M70 22 h126 c20 0 36 16 36 36s-16 36-36 36H70c-20 0-36-16-36-36S50 22 70 22z" fill="url(#espresso)" />
      <path d="M210 40 h32c22 0 40 18 40 40s-18 40-40 40h-12c16-10 26-28 26-46 0-14-5-26-14-34z" fill="#cdd2dc" opacity="0.65" />
      <path d="M0 58 c0 58 48 106 106 106s106-48 106-106" fill="none" stroke="#c0a896" stroke-width="10" stroke-linecap="round" opacity="0.4" />
    </g>
    <g transform="translate(170,292)">
      <ellipse cx="40" cy="64" rx="42" ry="24" fill="#a36f4a" opacity="0.55" />
      <path d="M0 60 c12-32 34-58 62-74 28-16 60-22 92-16" fill="none" stroke="#8a4e2f" stroke-width="12" stroke-linecap="round" opacity="0.5" />
    </g>
    <g transform="translate(420,260)">
      <ellipse cx="40" cy="70" rx="44" ry="26" fill="#a36f4a" opacity="0.55" />
      <path d="M0 68 c16-30 46-54 82-66 24-8 50-10 74-4" fill="none" stroke="#8a4e2f" stroke-width="12" stroke-linecap="round" opacity="0.5" />
    </g>
  </g>
  <text x="320" y="450" font-family="'Poppins', 'Segoe UI', sans-serif" font-size="40" text-anchor="middle" fill="#5c3420" opacity="0.85">West African Coffee</text>
<svg xmlns="http://www.w3.org/2000/svg" viewBox="0 0 640 480">
  <defs>
    <linearGradient id="bg" x1="0" y1="0" x2="0" y2="1">
      <stop offset="0%" stop-color="#f3ede3" />
      <stop offset="100%" stop-color="#e2d6c7" />
    </linearGradient>
    <radialGradient id="beanLight" cx="0.5" cy="0.4" r="0.7">
      <stop offset="0%" stop-color="#f7d8b0" />
      <stop offset="60%" stop-color="#b87941" />
      <stop offset="100%" stop-color="#65321b" />
    </radialGradient>
    <radialGradient id="beanDark" cx="0.55" cy="0.35" r="0.75">
      <stop offset="0%" stop-color="#d8a076" />
      <stop offset="55%" stop-color="#8b4b2b" />
      <stop offset="100%" stop-color="#3c1e12" />
    </radialGradient>
    <linearGradient id="steam" x1="0" y1="0" x2="0" y2="1">
      <stop offset="0%" stop-color="#ffffff" stop-opacity="0.7" />
      <stop offset="100%" stop-color="#ffffff" stop-opacity="0" />
    </linearGradient>
  </defs>
  <rect width="640" height="480" fill="url(#bg)" />
  <ellipse cx="320" cy="420" rx="250" ry="58" fill="#d5c6b6" opacity="0.6" />
  <g transform="translate(0,-10)">
    <g opacity="0.65">
      <path d="M290 150c0-30 18-50 36-60" stroke="url(#steam)" stroke-width="10" stroke-linecap="round" fill="none" />
      <path d="M330 140c-4-34 20-52 40-64" stroke="url(#steam)" stroke-width="9" stroke-linecap="round" fill="none" />
      <path d="M360 148c-6-28 12-46 26-56" stroke="url(#steam)" stroke-width="8" stroke-linecap="round" fill="none" />
    </g>
    <path d="M210 190h220c44 0 80 36 80 80s-36 80-80 80H210c-44 0-80-36-80-80s36-80 80-80z" fill="#fefefe" />
    <path d="M220 210h190c36 0 66 30 66 66s-30 66-66 66H220c-36 0-66-30-66-66s30-66 66-66z" fill="#c87a39" />
    <path d="M410 214c44 0 76 28 74 60-2 32-38 56-82 56h-4c18-16 30-38 30-62 0-21-8-40-18-54z" fill="#8d431b" opacity="0.55" />
    <g transform="translate(40,230) rotate(-12)">
      <path d="M120 0c58 4 110 42 118 90 6 42-24 74-80 70-58-4-110-42-118-90-6-42 24-74 80-70z" fill="url(#beanLight)" />
      <path d="M132 18c32 28 32 74-2 102" stroke="#3e1f12" stroke-width="10" stroke-linecap="round" opacity="0.45" />
    </g>
    <g transform="translate(280,240) rotate(14)">
      <path d="M120 0c60 8 112 54 116 104 4 46-32 78-90 70-60-8-112-54-116-104-4-46 32-78 90-70z" fill="url(#beanDark)" />
      <path d="M134 22c30 34 24 82-14 108" stroke="#2d160c" stroke-width="12" stroke-linecap="round" opacity="0.4" />
    </g>
  </g>
  <text x="320" y="448" font-family="'Poppins',sans-serif" font-size="42" text-anchor="middle" fill="#5b341c" opacity="0.85">Ivorian Coffee</text>
</svg>
