<svg xmlns="http://www.w3.org/2000/svg" viewBox="0 0 640 800" role="img" aria-labelledby="title desc">
  <title id="title">Portrait illustration of Jean Fortuné Kouassi</title>
  <desc id="desc">Stylised illustration with deep green gradient background for the executive chairman of Cana Impex.</desc>
  <defs>
    <linearGradient id="bg" x1="0" x2="0" y1="0" y2="1">
      <stop offset="0%" stop-color="#0b271a"/>
      <stop offset="100%" stop-color="#124d30"/>
    </linearGradient>
    <linearGradient id="shirt" x1="0" x2="1" y1="0" y2="1">
      <stop offset="0%" stop-color="#1f7a53"/>
      <stop offset="100%" stop-color="#28a26a"/>
    </linearGradient>
    <linearGradient id="skin" x1="0" x2="1" y1="0" y2="1">
      <stop offset="0%" stop-color="#a86f4f"/>
      <stop offset="100%" stop-color="#8a543a"/>
    </linearGradient>
  </defs>
  <rect width="640" height="800" fill="url(#bg)" rx="48"/>
  <circle cx="320" cy="240" r="140" fill="#0d3623" opacity="0.3"/>
  <path d="M320 270c-55 0-90-43-90-96 0-66 46-118 90-118s90 52 90 118c0 53-35 96-90 96z" fill="url(#skin)"/>
  <path d="M230 474c0-79 45-126 90-126s90 47 90 126v110H230V474z" fill="url(#shirt)"/>
  <path d="M320 120c-68 0-122 40-122 88 0 14 4 27 11 39 12-29 46-51 111-51 65 0 99 21 111 50 7-11 11-24 11-38 0-48-54-88-122-88z" fill="#0a1f16"/>
  <rect x="210" y="548" width="220" height="132" rx="32" fill="#0c271b" opacity="0.65"/>
  <text x="320" y="598" font-family="'Segoe UI', 'Helvetica Neue', Arial, sans-serif" font-size="36" text-anchor="middle" fill="#f6f8f7">Jean Fortuné Kouassi</text>
  <text x="320" y="642" font-family="'Segoe UI', 'Helvetica Neue', Arial, sans-serif" font-size="22" text-anchor="middle" fill="#b6f0d1" letter-spacing="4">EXECUTIVE CHAIRMAN</text>
</svg>
